<svg width="24" height="25" viewBox="0 0 24 25" fill="none" xmlns="http://www.w3.org/2000/svg">
<circle cx="12" cy="12.5" r="12" fill="#333333"/>
<path d="M11.3983 18.4999C11.0626 18.4999 10.7854 18.2377 10.7668 17.9025L10.53 13.6412C10.5113 13.3036 10.3231 12.9983 10.0299 12.8297L9.12616 12.3102C8.85782 12.156 8.51616 12.2976 8.43569 12.5965C8.40322 12.7172 8.41993 12.8457 8.48216 12.9541L9.3023 14.3817C9.46689 14.6682 9.36884 15.0339 9.08298 15.1996C8.79673 15.3656 8.43017 15.2684 8.26366 14.9825L7.29259 13.315C7.15666 13.0816 7.12094 12.8031 7.19354 12.543L7.68986 10.7645C7.76042 10.5116 7.9276 10.2967 8.15529 10.166L10.1166 9.04034C10.6879 8.71251 10.7917 7.93161 10.326 7.46592L10.0205 7.16047C9.78827 6.9282 9.78827 6.55161 10.0205 6.31933C10.2524 6.0875 10.6281 6.08699 10.8605 6.31819L12.3456 7.7952C12.7761 8.22331 12.682 8.94346 12.156 9.24662L11.5565 9.59219C11.3032 9.73818 11.2686 10.09 11.4886 10.2825C11.6453 10.4195 11.878 10.4235 12.0392 10.2918L16.2389 6.86026C16.4842 6.65988 16.8445 6.69187 17.0506 6.93232C17.2481 7.16267 17.2359 7.50593 17.0226 7.7217L12.5684 12.2283C12.3955 12.4032 12.2932 12.6357 12.2809 12.8813L12.03 17.899C12.0132 18.2356 11.7354 18.4999 11.3983 18.4999ZM7.79998 9.4999C7.46998 9.4999 7.18738 9.3823 6.95218 9.1471C6.71738 8.9123 6.59998 8.6299 6.59998 8.2999C6.59998 7.9699 6.71738 7.6873 6.95218 7.4521C7.18738 7.2173 7.46998 7.0999 7.79998 7.0999C8.12998 7.0999 8.41238 7.2173 8.64718 7.4521C8.88238 7.6873 8.99998 7.9699 8.99998 8.2999C8.99998 8.6299 8.88238 8.9123 8.64718 9.1471C8.41238 9.3823 8.12998 9.4999 7.79998 9.4999Z" fill="white"/>
</svg>
