<svg width="22" height="21" viewBox="0 0 22 21" fill="none" xmlns="http://www.w3.org/2000/svg">
<path d="M9.98156 1.73981C10.3029 0.753398 11.6984 0.753398 12.0186 1.73981L13.6455 6.74574C13.7155 6.96047 13.8516 7.14756 14.0344 7.28029C14.2171 7.41302 14.4371 7.48458 14.663 7.48474H19.927C20.9648 7.48474 21.3954 8.8128 20.5568 9.42328L16.2984 12.5164C16.1155 12.6494 15.9794 12.8368 15.9095 13.0519C15.8397 13.267 15.8397 13.4987 15.9096 13.7138L17.5354 18.7197C17.8568 19.7072 16.7268 20.5276 15.8882 19.9171L11.6299 16.824C11.4468 16.691 11.2264 16.6193 11.0001 16.6193C10.7738 16.6193 10.5534 16.691 10.3703 16.824L6.11198 19.9171C5.27337 20.5276 4.14345 19.7061 4.46475 18.7197L6.09056 13.7138C6.16047 13.4987 6.16051 13.267 6.09067 13.0519C6.02083 12.8368 5.8847 12.6494 5.70178 12.5164L1.44341 9.42328C0.603734 8.8128 1.03642 7.48474 2.07317 7.48474H7.33615C7.56219 7.4848 7.78245 7.41335 7.9654 7.28061C8.14835 7.14786 8.28462 6.96064 8.35469 6.74574L9.98156 1.73981Z" stroke="#333333" stroke-width="1.5" stroke-linecap="round" stroke-linejoin="round"/>
</svg>
