<svg width="133" height="75" viewBox="0 0 133 75" fill="none" xmlns="http://www.w3.org/2000/svg">
<rect x="17" y="10" width="79" height="20" rx="10" fill="#E7FFF1"/>
<path d="M27.834 17.1895C27.3613 17.1895 26.9355 17.2715 26.5566 17.4355C26.1816 17.5957 25.8613 17.8301 25.5957 18.1387C25.334 18.4434 25.1328 18.8125 24.9922 19.2461C24.8516 19.6797 24.7812 20.168 24.7812 20.7109C24.7812 21.4297 24.8926 22.0547 25.1152 22.5859C25.3418 23.1133 25.6777 23.5215 26.123 23.8105C26.5723 24.0996 27.1328 24.2441 27.8047 24.2441C28.1875 24.2441 28.5469 24.2129 28.8828 24.1504C29.2227 24.084 29.5527 24.002 29.873 23.9043V24.7715C29.5605 24.8887 29.2324 24.9746 28.8887 25.0293C28.5449 25.0879 28.1367 25.1172 27.6641 25.1172C26.793 25.1172 26.0645 24.9375 25.4785 24.5781C24.8965 24.2148 24.459 23.7031 24.166 23.043C23.877 22.3828 23.7324 21.6035 23.7324 20.7051C23.7324 20.0566 23.8223 19.4648 24.002 18.9297C24.1855 18.3906 24.4512 17.9258 24.7988 17.5352C25.1504 17.1445 25.5801 16.8438 26.0879 16.6328C26.5996 16.418 27.1855 16.3105 27.8457 16.3105C28.2793 16.3105 28.6973 16.3535 29.0996 16.4395C29.502 16.5254 29.8652 16.6484 30.1895 16.8086L29.791 17.6523C29.5176 17.5273 29.2168 17.4199 28.8887 17.3301C28.5645 17.2363 28.2129 17.1895 27.834 17.1895ZM37.1211 21.7773C37.1211 22.3047 37.0527 22.7754 36.916 23.1895C36.7793 23.6035 36.582 23.9531 36.3242 24.2383C36.0664 24.5234 35.7539 24.7422 35.3867 24.8945C35.0234 25.043 34.6113 25.1172 34.1504 25.1172C33.7207 25.1172 33.3262 25.043 32.9668 24.8945C32.6113 24.7422 32.3027 24.5234 32.041 24.2383C31.7832 23.9531 31.582 23.6035 31.4375 23.1895C31.2969 22.7754 31.2266 22.3047 31.2266 21.7773C31.2266 21.0742 31.3457 20.4766 31.584 19.9844C31.8223 19.4883 32.1621 19.1113 32.6035 18.8535C33.0488 18.5918 33.5781 18.4609 34.1914 18.4609C34.7773 18.4609 35.2891 18.5918 35.7266 18.8535C36.168 19.1152 36.5098 19.4941 36.752 19.9902C36.998 20.4824 37.1211 21.0781 37.1211 21.7773ZM32.2344 21.7773C32.2344 22.293 32.3027 22.7402 32.4395 23.1191C32.5762 23.498 32.7871 23.791 33.0723 23.998C33.3574 24.2051 33.7246 24.3086 34.1738 24.3086C34.6191 24.3086 34.9844 24.2051 35.2695 23.998C35.5586 23.791 35.7715 23.498 35.9082 23.1191C36.0449 22.7402 36.1133 22.293 36.1133 21.7773C36.1133 21.2656 36.0449 20.8242 35.9082 20.4531C35.7715 20.0781 35.5605 19.7891 35.2754 19.5859C34.9902 19.3828 34.6211 19.2812 34.168 19.2812C33.5 19.2812 33.0098 19.502 32.6973 19.9434C32.3887 20.3848 32.2344 20.9961 32.2344 21.7773ZM41.8438 18.4609C42.6055 18.4609 43.1816 18.6484 43.5723 19.0234C43.9629 19.3945 44.1582 19.9922 44.1582 20.8164V25H43.1973V20.8809C43.1973 20.3457 43.0742 19.9453 42.8281 19.6797C42.5859 19.4141 42.2129 19.2812 41.709 19.2812C40.998 19.2812 40.498 19.4824 40.209 19.8848C39.9199 20.2871 39.7754 20.8711 39.7754 21.6367V25H38.8027V18.5781H39.5879L39.7344 19.5039H39.7871C39.9238 19.2773 40.0977 19.0879 40.3086 18.9355C40.5195 18.7793 40.7559 18.6621 41.0176 18.584C41.2793 18.502 41.5547 18.4609 41.8438 18.4609ZM49.0215 19.3398H47.4219V25H46.4492V19.3398H45.3125V18.8711L46.4492 18.5488V18.1211C46.4492 17.582 46.5293 17.1445 46.6895 16.8086C46.8496 16.4688 47.082 16.2188 47.3867 16.0586C47.6914 15.8984 48.0625 15.8184 48.5 15.8184C48.7461 15.8184 48.9707 15.8398 49.1738 15.8828C49.3809 15.9258 49.5625 15.9746 49.7188 16.0293L49.4668 16.7969C49.334 16.7539 49.1836 16.7148 49.0156 16.6797C48.8516 16.6406 48.6836 16.6211 48.5117 16.6211C48.1406 16.6211 47.8652 16.7422 47.6855 16.9844C47.5098 17.2227 47.4219 17.5977 47.4219 18.1094V18.5781H49.0215V19.3398ZM51.1719 18.5781V25H50.1992V18.5781H51.1719ZM50.6973 16.1758C50.8574 16.1758 50.9941 16.2285 51.1074 16.334C51.2246 16.4355 51.2832 16.5957 51.2832 16.8145C51.2832 17.0293 51.2246 17.1895 51.1074 17.2949C50.9941 17.4004 50.8574 17.4531 50.6973 17.4531C50.5293 17.4531 50.3887 17.4004 50.2754 17.2949C50.166 17.1895 50.1113 17.0293 50.1113 16.8145C50.1113 16.5957 50.166 16.4355 50.2754 16.334C50.3887 16.2285 50.5293 16.1758 50.6973 16.1758ZM56.1465 18.4609C56.2754 18.4609 56.4102 18.4688 56.5508 18.4844C56.6914 18.4961 56.8164 18.5137 56.9258 18.5371L56.8027 19.4395C56.6973 19.4121 56.5801 19.3906 56.4512 19.375C56.3223 19.3594 56.2012 19.3516 56.0879 19.3516C55.8301 19.3516 55.5859 19.4043 55.3555 19.5098C55.1289 19.6113 54.9297 19.7598 54.7578 19.9551C54.5859 20.1465 54.4512 20.3789 54.3535 20.6523C54.2559 20.9219 54.207 21.2227 54.207 21.5547V25H53.2285V18.5781H54.0371L54.1426 19.7617H54.1836C54.3164 19.5234 54.4766 19.3066 54.6641 19.1113C54.8516 18.9121 55.0684 18.7539 55.3145 18.6367C55.5645 18.5195 55.8418 18.4609 56.1465 18.4609ZM65.1113 18.4609C65.8184 18.4609 66.3516 18.6465 66.7109 19.0176C67.0703 19.3848 67.25 19.9766 67.25 20.793V25H66.2891V20.8398C66.2891 20.3203 66.1758 19.9316 65.9492 19.6738C65.7266 19.4121 65.3945 19.2812 64.9531 19.2812C64.332 19.2812 63.8809 19.4609 63.5996 19.8203C63.3184 20.1797 63.1777 20.709 63.1777 21.4082V25H62.2109V20.8398C62.2109 20.4922 62.1602 20.2031 62.0586 19.9727C61.9609 19.7422 61.8125 19.5703 61.6133 19.457C61.418 19.3398 61.1699 19.2812 60.8691 19.2812C60.4434 19.2812 60.1016 19.3691 59.8438 19.5449C59.5859 19.7207 59.3984 19.9824 59.2812 20.3301C59.168 20.6738 59.1113 21.0977 59.1113 21.6016V25H58.1387V18.5781H58.9238L59.0703 19.4863H59.123C59.252 19.2637 59.4141 19.0762 59.6094 18.9238C59.8047 18.7715 60.0234 18.6562 60.2656 18.5781C60.5078 18.5 60.7656 18.4609 61.0391 18.4609C61.5273 18.4609 61.9355 18.5527 62.2637 18.7363C62.5957 18.916 62.8359 19.1914 62.9844 19.5625H63.0371C63.248 19.1914 63.5371 18.916 63.9043 18.7363C64.2715 18.5527 64.6738 18.4609 65.1113 18.4609ZM71.6504 18.4727C72.416 18.4727 72.9844 18.6445 73.3555 18.9883C73.7266 19.332 73.9121 19.8809 73.9121 20.6348V25H73.2031L73.0156 24.0508H72.9688C72.7891 24.2852 72.6016 24.4824 72.4062 24.6426C72.2109 24.7988 71.9844 24.918 71.7266 25C71.4727 25.0781 71.1602 25.1172 70.7891 25.1172C70.3984 25.1172 70.0508 25.0488 69.7461 24.9121C69.4453 24.7754 69.207 24.5684 69.0312 24.291C68.8594 24.0137 68.7734 23.6621 68.7734 23.2363C68.7734 22.5957 69.0273 22.1035 69.5352 21.7598C70.043 21.416 70.8164 21.2285 71.8555 21.1973L72.9629 21.1504V20.7578C72.9629 20.2031 72.8438 19.8145 72.6055 19.5918C72.3672 19.3691 72.0312 19.2578 71.5977 19.2578C71.2617 19.2578 70.9414 19.3066 70.6367 19.4043C70.332 19.502 70.043 19.6172 69.7695 19.75L69.4707 19.0117C69.7598 18.8633 70.0918 18.7363 70.4668 18.6309C70.8418 18.5254 71.2363 18.4727 71.6504 18.4727ZM72.9512 21.8359L71.9727 21.877C71.1719 21.9082 70.6074 22.0391 70.2793 22.2695C69.9512 22.5 69.7871 22.8262 69.7871 23.248C69.7871 23.6152 69.8984 23.8867 70.1211 24.0625C70.3438 24.2383 70.6387 24.3262 71.0059 24.3262C71.5762 24.3262 72.043 24.168 72.4062 23.8516C72.7695 23.5352 72.9512 23.0605 72.9512 22.4277V21.8359ZM78.2012 25.1172C77.3887 25.1172 76.7441 24.8398 76.2676 24.2852C75.7949 23.7305 75.5586 22.9062 75.5586 21.8125C75.5586 20.707 75.8008 19.873 76.2852 19.3105C76.7695 18.7441 77.4141 18.4609 78.2188 18.4609C78.5586 18.4609 78.8555 18.5059 79.1094 18.5957C79.3633 18.6855 79.582 18.8066 79.7656 18.959C79.9492 19.1074 80.1035 19.2773 80.2285 19.4688H80.2988C80.2832 19.3477 80.2676 19.1816 80.252 18.9707C80.2363 18.7598 80.2285 18.5879 80.2285 18.4551V15.8828H81.2012V25H80.416L80.2695 24.0859H80.2285C80.1074 24.2773 79.9531 24.4512 79.7656 24.6074C79.582 24.7637 79.3613 24.8887 79.1035 24.9824C78.8496 25.0723 78.5488 25.1172 78.2012 25.1172ZM78.3535 24.3086C79.041 24.3086 79.5273 24.1133 79.8125 23.7227C80.0977 23.332 80.2402 22.752 80.2402 21.9824V21.8066C80.2402 20.9902 80.1035 20.3633 79.8301 19.9258C79.5605 19.4883 79.0684 19.2695 78.3535 19.2695C77.7559 19.2695 77.3086 19.5 77.0117 19.9609C76.7148 20.418 76.5664 21.043 76.5664 21.8359C76.5664 22.625 76.7129 23.2344 77.0059 23.6641C77.3027 24.0938 77.752 24.3086 78.3535 24.3086ZM88.8008 21.7773C88.8008 22.3047 88.7324 22.7754 88.5957 23.1895C88.459 23.6035 88.2617 23.9531 88.0039 24.2383C87.7461 24.5234 87.4336 24.7422 87.0664 24.8945C86.7031 25.043 86.291 25.1172 85.8301 25.1172C85.4004 25.1172 85.0059 25.043 84.6465 24.8945C84.291 24.7422 83.9824 24.5234 83.7207 24.2383C83.4629 23.9531 83.2617 23.6035 83.1172 23.1895C82.9766 22.7754 82.9062 22.3047 82.9062 21.7773C82.9062 21.0742 83.0254 20.4766 83.2637 19.9844C83.502 19.4883 83.8418 19.1113 84.2832 18.8535C84.7285 18.5918 85.2578 18.4609 85.8711 18.4609C86.457 18.4609 86.9688 18.5918 87.4062 18.8535C87.8477 19.1152 88.1895 19.4941 88.4316 19.9902C88.6777 20.4824 88.8008 21.0781 88.8008 21.7773ZM83.9141 21.7773C83.9141 22.293 83.9824 22.7402 84.1191 23.1191C84.2559 23.498 84.4668 23.791 84.752 23.998C85.0371 24.2051 85.4043 24.3086 85.8535 24.3086C86.2988 24.3086 86.6641 24.2051 86.9492 23.998C87.2383 23.791 87.4512 23.498 87.5879 23.1191C87.7246 22.7402 87.793 22.293 87.793 21.7773C87.793 21.2656 87.7246 20.8242 87.5879 20.4531C87.4512 20.0781 87.2402 19.7891 86.9551 19.5859C86.6699 19.3828 86.3008 19.2812 85.8477 19.2812C85.1797 19.2812 84.6895 19.502 84.377 19.9434C84.0684 20.3848 83.9141 20.9961 83.9141 21.7773Z" fill="#219653"/>
<path d="M110.213 24H109.264V17.9297C109.264 17.6992 109.264 17.502 109.264 17.3379C109.268 17.1699 109.271 17.0176 109.275 16.8809C109.283 16.7402 109.293 16.5977 109.305 16.4531C109.184 16.5781 109.07 16.6855 108.965 16.7754C108.859 16.8613 108.729 16.9688 108.572 17.0977L107.594 17.8828L107.084 17.2207L109.404 15.4336H110.213V24ZM114.865 14.8828V17.6074C114.865 17.7637 114.861 17.9219 114.854 18.082C114.846 18.2383 114.832 18.3828 114.812 18.5156H114.877C115.01 18.2891 115.178 18.0996 115.381 17.9473C115.588 17.791 115.822 17.6738 116.084 17.5957C116.346 17.5137 116.623 17.4727 116.916 17.4727C117.432 17.4727 117.861 17.5547 118.205 17.7188C118.553 17.8828 118.812 18.1367 118.984 18.4805C119.16 18.8242 119.248 19.2695 119.248 19.8164V24H118.287V19.8809C118.287 19.3457 118.164 18.9453 117.918 18.6797C117.676 18.4141 117.303 18.2812 116.799 18.2812C116.322 18.2812 115.941 18.373 115.656 18.5566C115.375 18.7363 115.172 19.002 115.047 19.3535C114.926 19.7051 114.865 20.1348 114.865 20.6426V24H113.893V14.8828H114.865Z" fill="#828282"/>
<rect x="10.5" y="40.5" width="59" height="24" rx="3.5" stroke="#4F4F4F"/>
<path d="M20.94 49.03C21.7 49.03 22.3567 49.1733 22.91 49.46C23.47 49.74 23.8967 50.1433 24.19 50.67C24.49 51.1967 24.64 51.8167 24.64 52.53C24.64 53.2433 24.49 53.8633 24.19 54.39C23.8967 54.91 23.47 55.31 22.91 55.59C22.3567 55.8633 21.7 56 20.94 56H18.77V49.03H20.94ZM20.94 55.25C21.84 55.25 22.5267 55.0133 23 54.54C23.4733 54.06 23.71 53.39 23.71 52.53C23.71 51.6633 23.47 50.9867 22.99 50.5C22.5167 50.0133 21.8333 49.77 20.94 49.77H19.68V55.25H20.94ZM30.8403 53.05C30.8403 53.2233 30.8303 53.4067 30.8103 53.6H26.4303C26.4636 54.14 26.647 54.5633 26.9803 54.87C27.3203 55.17 27.7303 55.32 28.2103 55.32C28.6036 55.32 28.9303 55.23 29.1903 55.05C29.457 54.8633 29.6436 54.6167 29.7503 54.31H30.7303C30.5836 54.8367 30.2903 55.2667 29.8503 55.6C29.4103 55.9267 28.8636 56.09 28.2103 56.09C27.6903 56.09 27.2236 55.9733 26.8103 55.74C26.4036 55.5067 26.0836 55.1767 25.8503 54.75C25.617 54.3167 25.5003 53.8167 25.5003 53.25C25.5003 52.6833 25.6136 52.1867 25.8403 51.76C26.067 51.3333 26.3836 51.0067 26.7903 50.78C27.2036 50.5467 27.677 50.43 28.2103 50.43C28.7303 50.43 29.1903 50.5433 29.5903 50.77C29.9903 50.9967 30.297 51.31 30.5103 51.71C30.7303 52.1033 30.8403 52.55 30.8403 53.05ZM29.9003 52.86C29.9003 52.5133 29.8236 52.2167 29.6703 51.97C29.517 51.7167 29.307 51.5267 29.0403 51.4C28.7803 51.2667 28.4903 51.2 28.1703 51.2C27.7103 51.2 27.317 51.3467 26.9903 51.64C26.6703 51.9333 26.487 52.34 26.4403 52.86H29.9003ZM33.1515 51.27V54.5C33.1515 54.7667 33.2082 54.9567 33.3215 55.07C33.4348 55.1767 33.6315 55.23 33.9115 55.23H34.5815V56H33.7615C33.2548 56 32.8748 55.8833 32.6215 55.65C32.3682 55.4167 32.2415 55.0333 32.2415 54.5V51.27H31.5315V50.52H32.2415V49.14H33.1515V50.52H34.5815V51.27H33.1515ZM35.3441 53.24C35.3441 52.68 35.4574 52.19 35.6841 51.77C35.9107 51.3433 36.2207 51.0133 36.6141 50.78C37.0141 50.5467 37.4574 50.43 37.9441 50.43C38.4241 50.43 38.8407 50.5333 39.1941 50.74C39.5474 50.9467 39.8107 51.2067 39.9841 51.52V50.52H40.9041V56H39.9841V54.98C39.8041 55.3 39.5341 55.5667 39.1741 55.78C38.8207 55.9867 38.4074 56.09 37.9341 56.09C37.4474 56.09 37.0074 55.97 36.6141 55.73C36.2207 55.49 35.9107 55.1533 35.6841 54.72C35.4574 54.2867 35.3441 53.7933 35.3441 53.24ZM39.9841 53.25C39.9841 52.8367 39.9007 52.4767 39.7341 52.17C39.5674 51.8633 39.3407 51.63 39.0541 51.47C38.7741 51.3033 38.4641 51.22 38.1241 51.22C37.7841 51.22 37.4741 51.3 37.1941 51.46C36.9141 51.62 36.6907 51.8533 36.5241 52.16C36.3574 52.4667 36.2741 52.8267 36.2741 53.24C36.2741 53.66 36.3574 54.0267 36.5241 54.34C36.6907 54.6467 36.9141 54.8833 37.1941 55.05C37.4741 55.21 37.7841 55.29 38.1241 55.29C38.4641 55.29 38.7741 55.21 39.0541 55.05C39.3407 54.8833 39.5674 54.6467 39.7341 54.34C39.9007 54.0267 39.9841 53.6633 39.9841 53.25ZM43.3519 48.6V56H42.4419V48.6H43.3519ZM47.6228 50.42C48.0361 50.42 48.4095 50.51 48.7428 50.69C49.0761 50.8633 49.3361 51.1267 49.5228 51.48C49.7161 51.8333 49.8128 52.2633 49.8128 52.77V56H48.9128V52.9C48.9128 52.3533 48.7761 51.9367 48.5028 51.65C48.2295 51.3567 47.8561 51.21 47.3828 51.21C46.9028 51.21 46.5195 51.36 46.2328 51.66C45.9528 51.96 45.8128 52.3967 45.8128 52.97V56H44.9028V48.6H45.8128V51.3C45.9928 51.02 46.2395 50.8033 46.5528 50.65C46.8728 50.4967 47.2295 50.42 47.6228 50.42ZM56.2993 53.05C56.2993 53.2233 56.2893 53.4067 56.2693 53.6H51.8893C51.9226 54.14 52.106 54.5633 52.4393 54.87C52.7793 55.17 53.1893 55.32 53.6693 55.32C54.0626 55.32 54.3893 55.23 54.6493 55.05C54.916 54.8633 55.1026 54.6167 55.2093 54.31H56.1893C56.0426 54.8367 55.7493 55.2667 55.3093 55.6C54.8693 55.9267 54.3226 56.09 53.6693 56.09C53.1493 56.09 52.6826 55.9733 52.2693 55.74C51.8626 55.5067 51.5426 55.1767 51.3093 54.75C51.076 54.3167 50.9593 53.8167 50.9593 53.25C50.9593 52.6833 51.0726 52.1867 51.2993 51.76C51.526 51.3333 51.8426 51.0067 52.2493 50.78C52.6626 50.5467 53.136 50.43 53.6693 50.43C54.1893 50.43 54.6493 50.5433 55.0493 50.77C55.4493 50.9967 55.756 51.31 55.9693 51.71C56.1893 52.1033 56.2993 52.55 56.2993 53.05ZM55.3593 52.86C55.3593 52.5133 55.2826 52.2167 55.1293 51.97C54.976 51.7167 54.766 51.5267 54.4993 51.4C54.2393 51.2667 53.9493 51.2 53.6293 51.2C53.1693 51.2 52.776 51.3467 52.4493 51.64C52.1293 51.9333 51.946 52.34 51.8993 52.86H55.3593ZM59.4405 56.09C59.0205 56.09 58.6438 56.02 58.3105 55.88C57.9771 55.7333 57.7138 55.5333 57.5205 55.28C57.3271 55.02 57.2205 54.7233 57.2005 54.39H58.1405C58.1671 54.6633 58.2938 54.8867 58.5205 55.06C58.7538 55.2333 59.0571 55.32 59.4305 55.32C59.7771 55.32 60.0505 55.2433 60.2505 55.09C60.4505 54.9367 60.5505 54.7433 60.5505 54.51C60.5505 54.27 60.4438 54.0933 60.2305 53.98C60.0171 53.86 59.6871 53.7433 59.2405 53.63C58.8338 53.5233 58.5005 53.4167 58.2405 53.31C57.9871 53.1967 57.7671 53.0333 57.5805 52.82C57.4005 52.6 57.3105 52.3133 57.3105 51.96C57.3105 51.68 57.3938 51.4233 57.5605 51.19C57.7271 50.9567 57.9638 50.7733 58.2705 50.64C58.5771 50.5 58.9271 50.43 59.3205 50.43C59.9271 50.43 60.4171 50.5833 60.7905 50.89C61.1638 51.1967 61.3638 51.6167 61.3905 52.15H60.4805C60.4605 51.8633 60.3438 51.6333 60.1305 51.46C59.9238 51.2867 59.6438 51.2 59.2905 51.2C58.9638 51.2 58.7038 51.27 58.5105 51.41C58.3171 51.55 58.2205 51.7333 58.2205 51.96C58.2205 52.14 58.2771 52.29 58.3905 52.41C58.5105 52.5233 58.6571 52.6167 58.8305 52.69C59.0105 52.7567 59.2571 52.8333 59.5705 52.92C59.9638 53.0267 60.2838 53.1333 60.5305 53.24C60.7771 53.34 60.9871 53.4933 61.1605 53.7C61.3405 53.9067 61.4338 54.1767 61.4405 54.51C61.4405 54.81 61.3571 55.08 61.1905 55.32C61.0238 55.56 60.7871 55.75 60.4805 55.89C60.1805 56.0233 59.8338 56.09 59.4405 56.09Z" fill="#4F4F4F"/>
<rect x="75.5" y="40.5" width="47" height="24" rx="3.5" stroke="#4F4F4F"/>
<path d="M84.68 49.77V52.1H87.22V52.85H84.68V55.25H87.52V56H83.77V49.02H87.52V49.77H84.68ZM91.757 56L90.457 53.96L89.207 56H88.257L90.027 53.28L88.257 50.52H89.287L90.587 52.55L91.827 50.52H92.777L91.017 53.23L92.787 56H91.757ZM93.3421 53.25C93.3421 52.6833 93.4554 52.19 93.6821 51.77C93.9088 51.3433 94.2221 51.0133 94.6221 50.78C95.0288 50.5467 95.4921 50.43 96.0121 50.43C96.6854 50.43 97.2388 50.5933 97.6721 50.92C98.1121 51.2467 98.4021 51.7 98.5421 52.28H97.5621C97.4688 51.9467 97.2854 51.6833 97.0121 51.49C96.7454 51.2967 96.4121 51.2 96.0121 51.2C95.4921 51.2 95.0721 51.38 94.7521 51.74C94.4321 52.0933 94.2721 52.5967 94.2721 53.25C94.2721 53.91 94.4321 54.42 94.7521 54.78C95.0721 55.14 95.4921 55.32 96.0121 55.32C96.4121 55.32 96.7454 55.2267 97.0121 55.04C97.2788 54.8533 97.4621 54.5867 97.5621 54.24H98.5421C98.3954 54.8 98.1021 55.25 97.6621 55.59C97.2221 55.9233 96.6721 56.09 96.0121 56.09C95.4921 56.09 95.0288 55.9733 94.6221 55.74C94.2221 55.5067 93.9088 55.1767 93.6821 54.75C93.4554 54.3233 93.3421 53.8233 93.3421 53.25ZM100.666 48.6V56H99.7563V48.6H100.666ZM107.077 50.52V56H106.167V55.19C105.994 55.47 105.751 55.69 105.437 55.85C105.131 56.0033 104.791 56.08 104.417 56.08C103.991 56.08 103.607 55.9933 103.267 55.82C102.927 55.64 102.657 55.3733 102.457 55.02C102.264 54.6667 102.167 54.2367 102.167 53.73V50.52H103.067V53.61C103.067 54.15 103.204 54.5667 103.477 54.86C103.751 55.1467 104.124 55.29 104.597 55.29C105.084 55.29 105.467 55.14 105.747 54.84C106.027 54.54 106.167 54.1033 106.167 53.53V50.52H107.077ZM109.084 49.63C108.91 49.63 108.764 49.57 108.644 49.45C108.524 49.33 108.464 49.1833 108.464 49.01C108.464 48.8367 108.524 48.69 108.644 48.57C108.764 48.45 108.91 48.39 109.084 48.39C109.25 48.39 109.39 48.45 109.504 48.57C109.624 48.69 109.684 48.8367 109.684 49.01C109.684 49.1833 109.624 49.33 109.504 49.45C109.39 49.57 109.25 49.63 109.084 49.63ZM109.524 50.52V56H108.614V50.52H109.524ZM111.985 51.41C112.145 51.0967 112.371 50.8533 112.665 50.68C112.965 50.5067 113.328 50.42 113.755 50.42V51.36H113.515C112.495 51.36 111.985 51.9133 111.985 53.02V56H111.075V50.52H111.985V51.41Z" fill="#4F4F4F"/>
</svg>
