<svg width="139" height="75" viewBox="0 0 139 75" fill="none" xmlns="http://www.w3.org/2000/svg">
<rect x="10" y="10" width="119" height="20" rx="10" fill="#FFF8F2"/>
<path d="M22.5449 25L21.4902 22.2812H18.0566L17.0078 25H16L19.3516 16.3984H20.248L23.5762 25H22.5449ZM21.1914 21.3965L20.1895 18.6953C20.166 18.625 20.127 18.5098 20.0723 18.3496C20.0215 18.1895 19.9688 18.0234 19.9141 17.8516C19.8594 17.6797 19.8145 17.541 19.7793 17.4355C19.7402 17.5957 19.6973 17.7559 19.6504 17.916C19.6074 18.0723 19.5645 18.2188 19.5215 18.3555C19.4785 18.4883 19.4414 18.6016 19.4102 18.6953L18.3906 21.3965H21.1914ZM26.4121 27.8828C25.5684 27.8828 24.918 27.7246 24.4609 27.4082C24.0039 27.0957 23.7754 26.6562 23.7754 26.0898C23.7754 25.6875 23.9023 25.3438 24.1562 25.0586C24.4141 24.7734 24.7695 24.584 25.2227 24.4902C25.0547 24.4121 24.9102 24.2949 24.7891 24.1387C24.6719 23.9824 24.6133 23.8027 24.6133 23.5996C24.6133 23.3652 24.6777 23.1602 24.8066 22.9844C24.9395 22.8047 25.1406 22.6328 25.4102 22.4688C25.0742 22.332 24.8008 22.1016 24.5898 21.7773C24.3828 21.4492 24.2793 21.0684 24.2793 20.6348C24.2793 20.1738 24.375 19.7812 24.5664 19.457C24.7578 19.1289 25.0352 18.8789 25.3984 18.707C25.7617 18.5352 26.2012 18.4492 26.7168 18.4492C26.8301 18.4492 26.9434 18.4551 27.0566 18.4668C27.1738 18.4746 27.2852 18.4883 27.3906 18.5078C27.4961 18.5234 27.5879 18.543 27.666 18.5664H29.8691V19.1934L28.6855 19.3398C28.8027 19.4922 28.9004 19.6758 28.9785 19.8906C29.0566 20.1055 29.0957 20.3438 29.0957 20.6055C29.0957 21.2461 28.8789 21.7559 28.4453 22.1348C28.0117 22.5098 27.416 22.6973 26.6582 22.6973C26.4785 22.6973 26.2949 22.6816 26.1074 22.6504C25.916 22.7559 25.7695 22.873 25.668 23.002C25.5703 23.1309 25.5215 23.2793 25.5215 23.4473C25.5215 23.5723 25.5586 23.6719 25.6328 23.7461C25.7109 23.8203 25.8223 23.875 25.9668 23.9102C26.1113 23.9414 26.2852 23.957 26.4883 23.957H27.6191C28.3184 23.957 28.8535 24.1035 29.2246 24.3965C29.5996 24.6895 29.7871 25.1172 29.7871 25.6797C29.7871 26.3906 29.498 26.9355 28.9199 27.3145C28.3418 27.6934 27.5059 27.8828 26.4121 27.8828ZM26.4414 27.1211C26.9727 27.1211 27.4121 27.0664 27.7598 26.957C28.1113 26.8516 28.373 26.6973 28.5449 26.4941C28.7207 26.2949 28.8086 26.0566 28.8086 25.7793C28.8086 25.5215 28.75 25.3262 28.6328 25.1934C28.5156 25.0645 28.3438 24.9785 28.1172 24.9355C27.8906 24.8887 27.6133 24.8652 27.2852 24.8652H26.1719C25.8828 24.8652 25.6309 24.9102 25.416 25C25.2012 25.0898 25.0352 25.2227 24.918 25.3984C24.8047 25.5742 24.748 25.793 24.748 26.0547C24.748 26.4023 24.8945 26.666 25.1875 26.8457C25.4805 27.0293 25.8984 27.1211 26.4414 27.1211ZM26.6934 21.9883C27.1582 21.9883 27.5078 21.8711 27.7422 21.6367C27.9766 21.4023 28.0938 21.0605 28.0938 20.6113C28.0938 20.1309 27.9746 19.7715 27.7363 19.5332C27.498 19.291 27.1465 19.1699 26.6816 19.1699C26.2363 19.1699 25.8926 19.2949 25.6504 19.5449C25.4121 19.791 25.293 20.1523 25.293 20.6289C25.293 21.0664 25.4141 21.4023 25.6562 21.6367C25.8984 21.8711 26.2441 21.9883 26.6934 21.9883ZM36.4375 18.5781V25H35.6406L35.5 24.0977H35.4473C35.3145 24.3203 35.1426 24.5078 34.9316 24.6602C34.7207 24.8125 34.4824 24.9258 34.2168 25C33.9551 25.0781 33.6758 25.1172 33.3789 25.1172C32.8711 25.1172 32.4453 25.0352 32.1016 24.8711C31.7578 24.707 31.498 24.4531 31.3223 24.1094C31.1504 23.7656 31.0645 23.3242 31.0645 22.7852V18.5781H32.0488V22.7148C32.0488 23.25 32.1699 23.6504 32.4121 23.916C32.6543 24.1777 33.0234 24.3086 33.5195 24.3086C33.9961 24.3086 34.375 24.2188 34.6562 24.0391C34.9414 23.8594 35.1465 23.5957 35.2715 23.248C35.3965 22.8965 35.459 22.4668 35.459 21.959V18.5781H36.4375ZM40.8965 18.4727C41.6621 18.4727 42.2305 18.6445 42.6016 18.9883C42.9727 19.332 43.1582 19.8809 43.1582 20.6348V25H42.4492L42.2617 24.0508H42.2148C42.0352 24.2852 41.8477 24.4824 41.6523 24.6426C41.457 24.7988 41.2305 24.918 40.9727 25C40.7188 25.0781 40.4062 25.1172 40.0352 25.1172C39.6445 25.1172 39.2969 25.0488 38.9922 24.9121C38.6914 24.7754 38.4531 24.5684 38.2773 24.291C38.1055 24.0137 38.0195 23.6621 38.0195 23.2363C38.0195 22.5957 38.2734 22.1035 38.7812 21.7598C39.2891 21.416 40.0625 21.2285 41.1016 21.1973L42.209 21.1504V20.7578C42.209 20.2031 42.0898 19.8145 41.8516 19.5918C41.6133 19.3691 41.2773 19.2578 40.8438 19.2578C40.5078 19.2578 40.1875 19.3066 39.8828 19.4043C39.5781 19.502 39.2891 19.6172 39.0156 19.75L38.7168 19.0117C39.0059 18.8633 39.3379 18.7363 39.7129 18.6309C40.0879 18.5254 40.4824 18.4727 40.8965 18.4727ZM42.1973 21.8359L41.2188 21.877C40.418 21.9082 39.8535 22.0391 39.5254 22.2695C39.1973 22.5 39.0332 22.8262 39.0332 23.248C39.0332 23.6152 39.1445 23.8867 39.3672 24.0625C39.5898 24.2383 39.8848 24.3262 40.252 24.3262C40.8223 24.3262 41.2891 24.168 41.6523 23.8516C42.0156 23.5352 42.1973 23.0605 42.1973 22.4277V21.8359ZM48.0801 18.4609C48.209 18.4609 48.3438 18.4688 48.4844 18.4844C48.625 18.4961 48.75 18.5137 48.8594 18.5371L48.7363 19.4395C48.6309 19.4121 48.5137 19.3906 48.3848 19.375C48.2559 19.3594 48.1348 19.3516 48.0215 19.3516C47.7637 19.3516 47.5195 19.4043 47.2891 19.5098C47.0625 19.6113 46.8633 19.7598 46.6914 19.9551C46.5195 20.1465 46.3848 20.3789 46.2871 20.6523C46.1895 20.9219 46.1406 21.2227 46.1406 21.5547V25H45.1621V18.5781H45.9707L46.0762 19.7617H46.1172C46.25 19.5234 46.4102 19.3066 46.5977 19.1113C46.7852 18.9121 47.002 18.7539 47.248 18.6367C47.498 18.5195 47.7754 18.4609 48.0801 18.4609ZM52.3574 25.1172C51.5449 25.1172 50.9004 24.8398 50.4238 24.2852C49.9512 23.7305 49.7148 22.9062 49.7148 21.8125C49.7148 20.707 49.957 19.873 50.4414 19.3105C50.9258 18.7441 51.5703 18.4609 52.375 18.4609C52.7148 18.4609 53.0117 18.5059 53.2656 18.5957C53.5195 18.6855 53.7383 18.8066 53.9219 18.959C54.1055 19.1074 54.2598 19.2773 54.3848 19.4688H54.4551C54.4395 19.3477 54.4238 19.1816 54.4082 18.9707C54.3926 18.7598 54.3848 18.5879 54.3848 18.4551V15.8828H55.3574V25H54.5723L54.4258 24.0859H54.3848C54.2637 24.2773 54.1094 24.4512 53.9219 24.6074C53.7383 24.7637 53.5176 24.8887 53.2598 24.9824C53.0059 25.0723 52.7051 25.1172 52.3574 25.1172ZM52.5098 24.3086C53.1973 24.3086 53.6836 24.1133 53.9688 23.7227C54.2539 23.332 54.3965 22.752 54.3965 21.9824V21.8066C54.3965 20.9902 54.2598 20.3633 53.9863 19.9258C53.7168 19.4883 53.2246 19.2695 52.5098 19.2695C51.9121 19.2695 51.4648 19.5 51.168 19.9609C50.8711 20.418 50.7227 21.043 50.7227 21.8359C50.7227 22.625 50.8691 23.2344 51.1621 23.6641C51.459 24.0938 51.9082 24.3086 52.5098 24.3086ZM59.8223 18.4727C60.5879 18.4727 61.1562 18.6445 61.5273 18.9883C61.8984 19.332 62.084 19.8809 62.084 20.6348V25H61.375L61.1875 24.0508H61.1406C60.9609 24.2852 60.7734 24.4824 60.5781 24.6426C60.3828 24.7988 60.1562 24.918 59.8984 25C59.6445 25.0781 59.332 25.1172 58.9609 25.1172C58.5703 25.1172 58.2227 25.0488 57.918 24.9121C57.6172 24.7754 57.3789 24.5684 57.2031 24.291C57.0312 24.0137 56.9453 23.6621 56.9453 23.2363C56.9453 22.5957 57.1992 22.1035 57.707 21.7598C58.2148 21.416 58.9883 21.2285 60.0273 21.1973L61.1348 21.1504V20.7578C61.1348 20.2031 61.0156 19.8145 60.7773 19.5918C60.5391 19.3691 60.2031 19.2578 59.7695 19.2578C59.4336 19.2578 59.1133 19.3066 58.8086 19.4043C58.5039 19.502 58.2148 19.6172 57.9414 19.75L57.6426 19.0117C57.9316 18.8633 58.2637 18.7363 58.6387 18.6309C59.0137 18.5254 59.4082 18.4727 59.8223 18.4727ZM61.123 21.8359L60.1445 21.877C59.3438 21.9082 58.7793 22.0391 58.4512 22.2695C58.123 22.5 57.959 22.8262 57.959 23.248C57.959 23.6152 58.0703 23.8867 58.293 24.0625C58.5156 24.2383 58.8105 24.3262 59.1777 24.3262C59.748 24.3262 60.2148 24.168 60.5781 23.8516C60.9414 23.5352 61.123 23.0605 61.123 22.4277V21.8359ZM67.1289 18.4609C67.8906 18.4609 68.4668 18.6484 68.8574 19.0234C69.248 19.3945 69.4434 19.9922 69.4434 20.8164V25H68.4824V20.8809C68.4824 20.3457 68.3594 19.9453 68.1133 19.6797C67.8711 19.4141 67.498 19.2812 66.9941 19.2812C66.2832 19.2812 65.7832 19.4824 65.4941 19.8848C65.2051 20.2871 65.0605 20.8711 65.0605 21.6367V25H64.0879V18.5781H64.873L65.0195 19.5039H65.0723C65.209 19.2773 65.3828 19.0879 65.5938 18.9355C65.8047 18.7793 66.041 18.6621 66.3027 18.584C66.5645 18.502 66.8398 18.4609 67.1289 18.4609ZM73.7324 25.1172C72.9199 25.1172 72.2754 24.8398 71.7988 24.2852C71.3262 23.7305 71.0898 22.9062 71.0898 21.8125C71.0898 20.707 71.332 19.873 71.8164 19.3105C72.3008 18.7441 72.9453 18.4609 73.75 18.4609C74.0898 18.4609 74.3867 18.5059 74.6406 18.5957C74.8945 18.6855 75.1133 18.8066 75.2969 18.959C75.4805 19.1074 75.6348 19.2773 75.7598 19.4688H75.8301C75.8145 19.3477 75.7988 19.1816 75.7832 18.9707C75.7676 18.7598 75.7598 18.5879 75.7598 18.4551V15.8828H76.7324V25H75.9473L75.8008 24.0859H75.7598C75.6387 24.2773 75.4844 24.4512 75.2969 24.6074C75.1133 24.7637 74.8926 24.8887 74.6348 24.9824C74.3809 25.0723 74.0801 25.1172 73.7324 25.1172ZM73.8848 24.3086C74.5723 24.3086 75.0586 24.1133 75.3438 23.7227C75.6289 23.332 75.7715 22.752 75.7715 21.9824V21.8066C75.7715 20.9902 75.6348 20.3633 75.3613 19.9258C75.0918 19.4883 74.5996 19.2695 73.8848 19.2695C73.2871 19.2695 72.8398 19.5 72.543 19.9609C72.2461 20.418 72.0977 21.043 72.0977 21.8359C72.0977 22.625 72.2441 23.2344 72.5371 23.6641C72.834 24.0938 73.2832 24.3086 73.8848 24.3086ZM84.332 21.7773C84.332 22.3047 84.2637 22.7754 84.127 23.1895C83.9902 23.6035 83.793 23.9531 83.5352 24.2383C83.2773 24.5234 82.9648 24.7422 82.5977 24.8945C82.2344 25.043 81.8223 25.1172 81.3613 25.1172C80.9316 25.1172 80.5371 25.043 80.1777 24.8945C79.8223 24.7422 79.5137 24.5234 79.252 24.2383C78.9941 23.9531 78.793 23.6035 78.6484 23.1895C78.5078 22.7754 78.4375 22.3047 78.4375 21.7773C78.4375 21.0742 78.5566 20.4766 78.7949 19.9844C79.0332 19.4883 79.373 19.1113 79.8145 18.8535C80.2598 18.5918 80.7891 18.4609 81.4023 18.4609C81.9883 18.4609 82.5 18.5918 82.9375 18.8535C83.3789 19.1152 83.7207 19.4941 83.9629 19.9902C84.209 20.4824 84.332 21.0781 84.332 21.7773ZM79.4453 21.7773C79.4453 22.293 79.5137 22.7402 79.6504 23.1191C79.7871 23.498 79.998 23.791 80.2832 23.998C80.5684 24.2051 80.9355 24.3086 81.3848 24.3086C81.8301 24.3086 82.1953 24.2051 82.4805 23.998C82.7695 23.791 82.9824 23.498 83.1191 23.1191C83.2559 22.7402 83.3242 22.293 83.3242 21.7773C83.3242 21.2656 83.2559 20.8242 83.1191 20.4531C82.9824 20.0781 82.7715 19.7891 82.4863 19.5859C82.2012 19.3828 81.832 19.2812 81.3789 19.2812C80.7109 19.2812 80.2207 19.502 79.9082 19.9434C79.5996 20.3848 79.4453 20.9961 79.4453 21.7773ZM94.6504 25L93.5957 22.2812H90.1621L89.1133 25H88.1055L91.457 16.3984H92.3535L95.6816 25H94.6504ZM93.2969 21.3965L92.2949 18.6953C92.2715 18.625 92.2324 18.5098 92.1777 18.3496C92.127 18.1895 92.0742 18.0234 92.0195 17.8516C91.9648 17.6797 91.9199 17.541 91.8848 17.4355C91.8457 17.5957 91.8027 17.7559 91.7559 17.916C91.7129 18.0723 91.6699 18.2188 91.627 18.3555C91.584 18.4883 91.5469 18.6016 91.5156 18.6953L90.4961 21.3965H93.2969ZM99.2969 25.1172C98.7188 25.1172 98.209 24.998 97.7676 24.7598C97.3262 24.5215 96.9824 24.1582 96.7363 23.6699C96.4902 23.1816 96.3672 22.5664 96.3672 21.8242C96.3672 21.0469 96.4961 20.4121 96.7539 19.9199C97.0156 19.4238 97.375 19.0566 97.832 18.8184C98.2891 18.5801 98.8086 18.4609 99.3906 18.4609C99.7109 18.4609 100.02 18.4941 100.316 18.5605C100.617 18.623 100.863 18.7031 101.055 18.8008L100.762 19.6152C100.566 19.5371 100.34 19.4668 100.082 19.4043C99.8281 19.3418 99.5898 19.3105 99.3672 19.3105C98.9219 19.3105 98.5508 19.4062 98.2539 19.5977C97.9609 19.7891 97.7402 20.0703 97.5918 20.4414C97.4473 20.8125 97.375 21.2695 97.375 21.8125C97.375 22.332 97.4453 22.7754 97.5859 23.1426C97.7305 23.5098 97.9434 23.791 98.2246 23.9863C98.5098 24.1777 98.8652 24.2734 99.291 24.2734C99.6309 24.2734 99.9375 24.2383 100.211 24.168C100.484 24.0938 100.732 24.0078 100.955 23.9102V24.7773C100.74 24.8867 100.5 24.9707 100.234 25.0293C99.9727 25.0879 99.6602 25.1172 99.2969 25.1172ZM104.951 18.4609C105.498 18.4609 105.967 18.582 106.357 18.8242C106.748 19.0664 107.047 19.4062 107.254 19.8438C107.461 20.2773 107.564 20.7852 107.564 21.3672V21.9707H103.129C103.141 22.7246 103.328 23.2988 103.691 23.6934C104.055 24.0879 104.566 24.2852 105.227 24.2852C105.633 24.2852 105.992 24.248 106.305 24.1738C106.617 24.0996 106.941 23.9902 107.277 23.8457V24.7012C106.953 24.8457 106.631 24.9512 106.311 25.0176C105.994 25.084 105.619 25.1172 105.186 25.1172C104.568 25.1172 104.029 24.9922 103.568 24.7422C103.111 24.4883 102.756 24.1172 102.502 23.6289C102.248 23.1406 102.121 22.543 102.121 21.8359C102.121 21.1445 102.236 20.5469 102.467 20.043C102.701 19.5352 103.029 19.1445 103.451 18.8711C103.877 18.5977 104.377 18.4609 104.951 18.4609ZM104.939 19.2578C104.42 19.2578 104.006 19.4277 103.697 19.7676C103.389 20.1074 103.205 20.582 103.146 21.1914H106.545C106.541 20.8086 106.48 20.4727 106.363 20.1836C106.25 19.8906 106.076 19.6641 105.842 19.5039C105.607 19.3398 105.307 19.2578 104.939 19.2578ZM110.189 18.5781V25H109.217V18.5781H110.189ZM109.715 16.1758C109.875 16.1758 110.012 16.2285 110.125 16.334C110.242 16.4355 110.301 16.5957 110.301 16.8145C110.301 17.0293 110.242 17.1895 110.125 17.2949C110.012 17.4004 109.875 17.4531 109.715 17.4531C109.547 17.4531 109.406 17.4004 109.293 17.2949C109.184 17.1895 109.129 17.0293 109.129 16.8145C109.129 16.5957 109.184 16.4355 109.293 16.334C109.406 16.2285 109.547 16.1758 109.715 16.1758ZM114.326 24.3203C114.486 24.3203 114.65 24.3066 114.818 24.2793C114.986 24.252 115.123 24.2188 115.229 24.1797V24.9355C115.115 24.9863 114.957 25.0293 114.754 25.0645C114.555 25.0996 114.359 25.1172 114.168 25.1172C113.828 25.1172 113.52 25.0586 113.242 24.9414C112.965 24.8203 112.742 24.6172 112.574 24.332C112.41 24.0469 112.328 23.6523 112.328 23.1484V19.3398H111.414V18.8652L112.334 18.4844L112.721 17.0898H113.307V18.5781H115.188V19.3398H113.307V23.1191C113.307 23.5215 113.398 23.8223 113.582 24.0215C113.77 24.2207 114.018 24.3203 114.326 24.3203ZM119.002 18.4609C119.549 18.4609 120.018 18.582 120.408 18.8242C120.799 19.0664 121.098 19.4062 121.305 19.8438C121.512 20.2773 121.615 20.7852 121.615 21.3672V21.9707H117.18C117.191 22.7246 117.379 23.2988 117.742 23.6934C118.105 24.0879 118.617 24.2852 119.277 24.2852C119.684 24.2852 120.043 24.248 120.355 24.1738C120.668 24.0996 120.992 23.9902 121.328 23.8457V24.7012C121.004 24.8457 120.682 24.9512 120.361 25.0176C120.045 25.084 119.67 25.1172 119.236 25.1172C118.619 25.1172 118.08 24.9922 117.619 24.7422C117.162 24.4883 116.807 24.1172 116.553 23.6289C116.299 23.1406 116.172 22.543 116.172 21.8359C116.172 21.1445 116.287 20.5469 116.518 20.043C116.752 19.5352 117.08 19.1445 117.502 18.8711C117.928 18.5977 118.428 18.4609 119.002 18.4609ZM118.99 19.2578C118.471 19.2578 118.057 19.4277 117.748 19.7676C117.439 20.1074 117.256 20.582 117.197 21.1914H120.596C120.592 20.8086 120.531 20.4727 120.414 20.1836C120.301 19.8906 120.127 19.6641 119.893 19.5039C119.658 19.3398 119.357 19.2578 118.99 19.2578Z" fill="#E69146"/>
<rect x="16.5" y="40.5" width="59" height="24" rx="3.5" stroke="#4F4F4F"/>
<path d="M26.94 49.03C27.7 49.03 28.3567 49.1733 28.91 49.46C29.47 49.74 29.8967 50.1433 30.19 50.67C30.49 51.1967 30.64 51.8167 30.64 52.53C30.64 53.2433 30.49 53.8633 30.19 54.39C29.8967 54.91 29.47 55.31 28.91 55.59C28.3567 55.8633 27.7 56 26.94 56H24.77V49.03H26.94ZM26.94 55.25C27.84 55.25 28.5267 55.0133 29 54.54C29.4733 54.06 29.71 53.39 29.71 52.53C29.71 51.6633 29.47 50.9867 28.99 50.5C28.5167 50.0133 27.8333 49.77 26.94 49.77H25.68V55.25H26.94ZM36.8403 53.05C36.8403 53.2233 36.8303 53.4067 36.8103 53.6H32.4303C32.4636 54.14 32.647 54.5633 32.9803 54.87C33.3203 55.17 33.7303 55.32 34.2103 55.32C34.6036 55.32 34.9303 55.23 35.1903 55.05C35.457 54.8633 35.6436 54.6167 35.7503 54.31H36.7303C36.5836 54.8367 36.2903 55.2667 35.8503 55.6C35.4103 55.9267 34.8636 56.09 34.2103 56.09C33.6903 56.09 33.2236 55.9733 32.8103 55.74C32.4036 55.5067 32.0836 55.1767 31.8503 54.75C31.617 54.3167 31.5003 53.8167 31.5003 53.25C31.5003 52.6833 31.6136 52.1867 31.8403 51.76C32.067 51.3333 32.3836 51.0067 32.7903 50.78C33.2036 50.5467 33.677 50.43 34.2103 50.43C34.7303 50.43 35.1903 50.5433 35.5903 50.77C35.9903 50.9967 36.297 51.31 36.5103 51.71C36.7303 52.1033 36.8403 52.55 36.8403 53.05ZM35.9003 52.86C35.9003 52.5133 35.8236 52.2167 35.6703 51.97C35.517 51.7167 35.307 51.5267 35.0403 51.4C34.7803 51.2667 34.4903 51.2 34.1703 51.2C33.7103 51.2 33.317 51.3467 32.9903 51.64C32.6703 51.9333 32.487 52.34 32.4403 52.86H35.9003ZM39.1515 51.27V54.5C39.1515 54.7667 39.2082 54.9567 39.3215 55.07C39.4348 55.1767 39.6315 55.23 39.9115 55.23H40.5815V56H39.7615C39.2548 56 38.8748 55.8833 38.6215 55.65C38.3682 55.4167 38.2415 55.0333 38.2415 54.5V51.27H37.5315V50.52H38.2415V49.14H39.1515V50.52H40.5815V51.27H39.1515ZM41.3441 53.24C41.3441 52.68 41.4574 52.19 41.6841 51.77C41.9107 51.3433 42.2207 51.0133 42.6141 50.78C43.0141 50.5467 43.4574 50.43 43.9441 50.43C44.4241 50.43 44.8407 50.5333 45.1941 50.74C45.5474 50.9467 45.8107 51.2067 45.9841 51.52V50.52H46.9041V56H45.9841V54.98C45.8041 55.3 45.5341 55.5667 45.1741 55.78C44.8207 55.9867 44.4074 56.09 43.9341 56.09C43.4474 56.09 43.0074 55.97 42.6141 55.73C42.2207 55.49 41.9107 55.1533 41.6841 54.72C41.4574 54.2867 41.3441 53.7933 41.3441 53.24ZM45.9841 53.25C45.9841 52.8367 45.9007 52.4767 45.7341 52.17C45.5674 51.8633 45.3407 51.63 45.0541 51.47C44.7741 51.3033 44.4641 51.22 44.1241 51.22C43.7841 51.22 43.4741 51.3 43.1941 51.46C42.9141 51.62 42.6907 51.8533 42.5241 52.16C42.3574 52.4667 42.2741 52.8267 42.2741 53.24C42.2741 53.66 42.3574 54.0267 42.5241 54.34C42.6907 54.6467 42.9141 54.8833 43.1941 55.05C43.4741 55.21 43.7841 55.29 44.1241 55.29C44.4641 55.29 44.7741 55.21 45.0541 55.05C45.3407 54.8833 45.5674 54.6467 45.7341 54.34C45.9007 54.0267 45.9841 53.6633 45.9841 53.25ZM49.3519 48.6V56H48.4419V48.6H49.3519ZM53.6228 50.42C54.0361 50.42 54.4095 50.51 54.7428 50.69C55.0761 50.8633 55.3361 51.1267 55.5228 51.48C55.7161 51.8333 55.8128 52.2633 55.8128 52.77V56H54.9128V52.9C54.9128 52.3533 54.7761 51.9367 54.5028 51.65C54.2295 51.3567 53.8561 51.21 53.3828 51.21C52.9028 51.21 52.5195 51.36 52.2328 51.66C51.9528 51.96 51.8128 52.3967 51.8128 52.97V56H50.9028V48.6H51.8128V51.3C51.9928 51.02 52.2395 50.8033 52.5528 50.65C52.8728 50.4967 53.2295 50.42 53.6228 50.42ZM62.2993 53.05C62.2993 53.2233 62.2893 53.4067 62.2693 53.6H57.8893C57.9226 54.14 58.106 54.5633 58.4393 54.87C58.7793 55.17 59.1893 55.32 59.6693 55.32C60.0626 55.32 60.3893 55.23 60.6493 55.05C60.916 54.8633 61.1026 54.6167 61.2093 54.31H62.1893C62.0426 54.8367 61.7493 55.2667 61.3093 55.6C60.8693 55.9267 60.3226 56.09 59.6693 56.09C59.1493 56.09 58.6826 55.9733 58.2693 55.74C57.8626 55.5067 57.5426 55.1767 57.3093 54.75C57.076 54.3167 56.9593 53.8167 56.9593 53.25C56.9593 52.6833 57.0726 52.1867 57.2993 51.76C57.526 51.3333 57.8426 51.0067 58.2493 50.78C58.6626 50.5467 59.136 50.43 59.6693 50.43C60.1893 50.43 60.6493 50.5433 61.0493 50.77C61.4493 50.9967 61.756 51.31 61.9693 51.71C62.1893 52.1033 62.2993 52.55 62.2993 53.05ZM61.3593 52.86C61.3593 52.5133 61.2826 52.2167 61.1293 51.97C60.976 51.7167 60.766 51.5267 60.4993 51.4C60.2393 51.2667 59.9493 51.2 59.6293 51.2C59.1693 51.2 58.776 51.3467 58.4493 51.64C58.1293 51.9333 57.946 52.34 57.8993 52.86H61.3593ZM65.4405 56.09C65.0205 56.09 64.6438 56.02 64.3105 55.88C63.9771 55.7333 63.7138 55.5333 63.5205 55.28C63.3271 55.02 63.2205 54.7233 63.2005 54.39H64.1405C64.1671 54.6633 64.2938 54.8867 64.5205 55.06C64.7538 55.2333 65.0571 55.32 65.4305 55.32C65.7771 55.32 66.0505 55.2433 66.2505 55.09C66.4505 54.9367 66.5505 54.7433 66.5505 54.51C66.5505 54.27 66.4438 54.0933 66.2305 53.98C66.0171 53.86 65.6871 53.7433 65.2405 53.63C64.8338 53.5233 64.5005 53.4167 64.2405 53.31C63.9871 53.1967 63.7671 53.0333 63.5805 52.82C63.4005 52.6 63.3105 52.3133 63.3105 51.96C63.3105 51.68 63.3938 51.4233 63.5605 51.19C63.7271 50.9567 63.9638 50.7733 64.2705 50.64C64.5771 50.5 64.9271 50.43 65.3205 50.43C65.9271 50.43 66.4171 50.5833 66.7905 50.89C67.1638 51.1967 67.3638 51.6167 67.3905 52.15H66.4805C66.4605 51.8633 66.3438 51.6333 66.1305 51.46C65.9238 51.2867 65.6438 51.2 65.2905 51.2C64.9638 51.2 64.7038 51.27 64.5105 51.41C64.3171 51.55 64.2205 51.7333 64.2205 51.96C64.2205 52.14 64.2771 52.29 64.3905 52.41C64.5105 52.5233 64.6571 52.6167 64.8305 52.69C65.0105 52.7567 65.2571 52.8333 65.5705 52.92C65.9638 53.0267 66.2838 53.1333 66.5305 53.24C66.7771 53.34 66.9871 53.4933 67.1605 53.7C67.3405 53.9067 67.4338 54.1767 67.4405 54.51C67.4405 54.81 67.3571 55.08 67.1905 55.32C67.0238 55.56 66.7871 55.75 66.4805 55.89C66.1805 56.0233 65.8338 56.09 65.4405 56.09Z" fill="#4F4F4F"/>
<rect x="81.5" y="40.5" width="47" height="24" rx="3.5" stroke="#4F4F4F"/>
<path d="M90.68 49.77V52.1H93.22V52.85H90.68V55.25H93.52V56H89.77V49.02H93.52V49.77H90.68ZM97.757 56L96.457 53.96L95.207 56H94.257L96.027 53.28L94.257 50.52H95.287L96.587 52.55L97.827 50.52H98.777L97.017 53.23L98.787 56H97.757ZM99.3421 53.25C99.3421 52.6833 99.4554 52.19 99.6821 51.77C99.9088 51.3433 100.222 51.0133 100.622 50.78C101.029 50.5467 101.492 50.43 102.012 50.43C102.685 50.43 103.239 50.5933 103.672 50.92C104.112 51.2467 104.402 51.7 104.542 52.28H103.562C103.469 51.9467 103.285 51.6833 103.012 51.49C102.745 51.2967 102.412 51.2 102.012 51.2C101.492 51.2 101.072 51.38 100.752 51.74C100.432 52.0933 100.272 52.5967 100.272 53.25C100.272 53.91 100.432 54.42 100.752 54.78C101.072 55.14 101.492 55.32 102.012 55.32C102.412 55.32 102.745 55.2267 103.012 55.04C103.279 54.8533 103.462 54.5867 103.562 54.24H104.542C104.395 54.8 104.102 55.25 103.662 55.59C103.222 55.9233 102.672 56.09 102.012 56.09C101.492 56.09 101.029 55.9733 100.622 55.74C100.222 55.5067 99.9088 55.1767 99.6821 54.75C99.4554 54.3233 99.3421 53.8233 99.3421 53.25ZM106.666 48.6V56H105.756V48.6H106.666ZM113.077 50.52V56H112.167V55.19C111.994 55.47 111.751 55.69 111.437 55.85C111.131 56.0033 110.791 56.08 110.417 56.08C109.991 56.08 109.607 55.9933 109.267 55.82C108.927 55.64 108.657 55.3733 108.457 55.02C108.264 54.6667 108.167 54.2367 108.167 53.73V50.52H109.067V53.61C109.067 54.15 109.204 54.5667 109.477 54.86C109.751 55.1467 110.124 55.29 110.597 55.29C111.084 55.29 111.467 55.14 111.747 54.84C112.027 54.54 112.167 54.1033 112.167 53.53V50.52H113.077ZM115.084 49.63C114.91 49.63 114.764 49.57 114.644 49.45C114.524 49.33 114.464 49.1833 114.464 49.01C114.464 48.8367 114.524 48.69 114.644 48.57C114.764 48.45 114.91 48.39 115.084 48.39C115.25 48.39 115.39 48.45 115.504 48.57C115.624 48.69 115.684 48.8367 115.684 49.01C115.684 49.1833 115.624 49.33 115.504 49.45C115.39 49.57 115.25 49.63 115.084 49.63ZM115.524 50.52V56H114.614V50.52H115.524ZM117.985 51.41C118.145 51.0967 118.371 50.8533 118.665 50.68C118.965 50.5067 119.328 50.42 119.755 50.42V51.36H119.515C118.495 51.36 117.985 51.9133 117.985 53.02V56H117.075V50.52H117.985V51.41Z" fill="#4F4F4F"/>
</svg>
