<svg width="80" height="75" viewBox="0 0 80 75" fill="none" xmlns="http://www.w3.org/2000/svg">
<rect x="10" y="10" width="60" height="20" rx="10" fill="#767676"/>
<path d="M16.5039 25L18.3145 16.4336H22.6562L22.4688 17.3125H19.1172L18.5254 20.084H21.666L21.4961 20.9512H18.3496L17.6699 24.1211H21.0273L20.8398 25H16.5039ZM21.7598 25L24.5547 21.6953L23.1602 18.5781H24.1445L25.1758 21.0039L27.1328 18.5781H28.2637L25.5801 21.7363L27.0684 25H26.0723L24.9473 22.4453L22.8906 25H21.7598ZM27.707 27.8711L29.6699 18.5781H30.4668L30.3086 19.8262H30.3496C30.5332 19.584 30.7344 19.3613 30.9531 19.1582C31.1758 18.9512 31.418 18.7852 31.6797 18.6602C31.9453 18.5352 32.2344 18.4727 32.5469 18.4727C32.8984 18.4727 33.2051 18.5566 33.4668 18.7246C33.7285 18.8887 33.9316 19.1348 34.0762 19.4629C34.2246 19.7871 34.2988 20.1914 34.2988 20.6758C34.2988 21.1367 34.252 21.5859 34.1582 22.0234C34.0684 22.457 33.9355 22.8613 33.7598 23.2363C33.584 23.6074 33.3672 23.9355 33.1094 24.2207C32.8555 24.502 32.5645 24.7227 32.2363 24.8828C31.9082 25.0391 31.5469 25.1172 31.1523 25.1172C30.8516 25.1172 30.5918 25.0645 30.373 24.959C30.1582 24.8496 29.9766 24.707 29.8281 24.5312C29.6836 24.3555 29.5684 24.166 29.4824 23.9629H29.4297C29.4141 24.1074 29.3887 24.2969 29.3535 24.5312C29.3223 24.7617 29.2891 24.9551 29.2539 25.1113L28.668 27.8711H27.707ZM31.082 24.3086C31.3555 24.3086 31.6055 24.2402 31.832 24.1035C32.0625 23.9668 32.2676 23.7812 32.4473 23.5469C32.6309 23.3086 32.7852 23.0332 32.9102 22.7207C33.0391 22.4082 33.1367 22.0762 33.2031 21.7246C33.2695 21.373 33.3027 21.0156 33.3027 20.6523C33.3027 20.1992 33.2109 19.8574 33.0273 19.627C32.8477 19.3965 32.5781 19.2812 32.2188 19.2812C32.0312 19.2812 31.8418 19.3281 31.6504 19.4219C31.459 19.5117 31.2734 19.6406 31.0938 19.8086C30.9141 19.9727 30.7461 20.168 30.5898 20.3945C30.4336 20.6211 30.2969 20.8711 30.1797 21.1445C30.0664 21.418 29.9766 21.707 29.9102 22.0117C29.8438 22.3164 29.8105 22.6289 29.8105 22.9492C29.8105 23.3594 29.9141 23.6895 30.1211 23.9395C30.332 24.1855 30.6523 24.3086 31.082 24.3086ZM35.2422 25L36.6074 18.5781H37.5859L36.2207 25H35.2422ZM37.4277 17.4531C37.2715 17.4531 37.1406 17.4082 37.0352 17.3184C36.9336 17.2246 36.8828 17.0938 36.8828 16.9258C36.8828 16.7969 36.9082 16.6758 36.959 16.5625C37.0137 16.4492 37.0898 16.3594 37.1875 16.293C37.2891 16.2227 37.4121 16.1875 37.5566 16.1875C37.7285 16.1875 37.8574 16.2324 37.9434 16.3223C38.0293 16.4121 38.0723 16.5371 38.0723 16.6973C38.0723 16.9277 38.0059 17.1113 37.873 17.248C37.7402 17.3848 37.5918 17.4531 37.4277 17.4531ZM38.2773 25L39.6426 18.5781H40.4395L40.2871 19.8203H40.3457C40.5098 19.5977 40.6855 19.3828 40.873 19.1758C41.0605 18.9648 41.2734 18.793 41.5117 18.6602C41.7539 18.5273 42.0312 18.4609 42.3438 18.4609C42.4609 18.4609 42.5801 18.4688 42.7012 18.4844C42.8223 18.4961 42.9355 18.5176 43.041 18.5488L42.8301 19.4219C42.7246 19.3984 42.6211 19.3809 42.5195 19.3691C42.4219 19.3574 42.3203 19.3516 42.2148 19.3516C41.918 19.3516 41.6426 19.4297 41.3887 19.5859C41.1348 19.7383 40.9062 19.9434 40.7031 20.2012C40.5039 20.459 40.334 20.7461 40.1934 21.0625C40.0566 21.3789 39.9531 21.7012 39.8828 22.0293L39.2559 25H38.2773ZM45.0039 25.1172C44.6562 25.1172 44.3516 25.0332 44.0898 24.8652C43.8281 24.6973 43.625 24.4492 43.4805 24.1211C43.3359 23.793 43.2637 23.3926 43.2637 22.9199C43.2637 22.4473 43.3125 21.9922 43.4102 21.5547C43.5117 21.1172 43.6543 20.7109 43.8379 20.3359C44.0215 19.9609 44.2422 19.6328 44.5 19.3516C44.7617 19.0703 45.0547 18.8516 45.3789 18.6953C45.7031 18.5391 46.0527 18.4609 46.4277 18.4609C46.7168 18.4609 46.9668 18.5156 47.1777 18.625C47.3926 18.7344 47.5703 18.8789 47.7109 19.0586C47.8555 19.2344 47.9688 19.4219 48.0508 19.6211H48.1094L48.4844 18.5781H49.2285L47.8691 25H47.0898L47.2656 23.7578H47.2188C47.043 23.9922 46.8418 24.2129 46.6152 24.4199C46.3887 24.627 46.1406 24.7949 45.8711 24.9238C45.6016 25.0527 45.3125 25.1172 45.0039 25.1172ZM45.3203 24.3086C45.6211 24.3086 45.918 24.1992 46.2109 23.9805C46.5078 23.7578 46.7734 23.459 47.0078 23.084C47.2461 22.7051 47.4277 22.2793 47.5527 21.8066C47.6152 21.5762 47.6562 21.3652 47.6758 21.1738C47.6992 20.9785 47.7109 20.7969 47.7109 20.6289C47.7109 20.2266 47.6035 19.9023 47.3887 19.6562C47.1777 19.4062 46.8887 19.2812 46.5215 19.2812C46.2598 19.2812 46.0137 19.3477 45.7832 19.4805C45.5527 19.6094 45.3438 19.791 45.1562 20.0254C44.9727 20.2559 44.8145 20.5254 44.6816 20.834C44.5488 21.1387 44.4453 21.4707 44.3711 21.8301C44.3008 22.1895 44.2656 22.5586 44.2656 22.9375C44.2656 23.3867 44.3574 23.7285 44.541 23.9629C44.7246 24.1934 44.9844 24.3086 45.3203 24.3086ZM51.7949 25.1172C51.4434 25.1172 51.1367 25.0352 50.875 24.8711C50.6133 24.707 50.4102 24.4629 50.2656 24.1387C50.1211 23.8105 50.0488 23.4043 50.0488 22.9199C50.0488 22.459 50.0957 22.0117 50.1895 21.5781C50.2832 21.1406 50.418 20.7344 50.5938 20.3594C50.7734 19.9844 50.9922 19.6562 51.25 19.375C51.5078 19.0898 51.8008 18.8691 52.1289 18.7129C52.4609 18.5527 52.8242 18.4727 53.2188 18.4727C53.5195 18.4727 53.7773 18.5273 53.9922 18.6367C54.207 18.7461 54.3848 18.8887 54.5254 19.0645C54.6699 19.2363 54.7832 19.4219 54.8652 19.6211H54.9238C54.9473 19.4414 54.9707 19.2676 54.9941 19.0996C55.0176 18.9277 55.0449 18.7539 55.0762 18.5781C55.1113 18.4023 55.1504 18.2207 55.1934 18.0332L55.6445 15.8828H56.6113L54.6777 25H53.875L54.0332 23.7578H53.9922C53.8047 24 53.5996 24.2246 53.377 24.4316C53.1582 24.6387 52.918 24.8047 52.6562 24.9297C52.3945 25.0547 52.1074 25.1172 51.7949 25.1172ZM52.123 24.3086C52.3066 24.3086 52.4922 24.2637 52.6797 24.1738C52.8711 24.084 53.0566 23.957 53.2363 23.793C53.416 23.625 53.584 23.4277 53.7402 23.2012C53.8965 22.9746 54.0332 22.7246 54.1504 22.4512C54.2715 22.1777 54.3652 21.8887 54.4316 21.584C54.498 21.2793 54.5312 20.9648 54.5312 20.6406C54.5312 20.2266 54.4316 19.8965 54.2324 19.6504C54.0332 19.4043 53.7148 19.2812 53.2773 19.2812C53.0078 19.2812 52.7578 19.3496 52.5273 19.4863C52.3008 19.623 52.0957 19.8105 51.9121 20.0488C51.7285 20.2871 51.5723 20.5625 51.4434 20.875C51.3184 21.1836 51.2207 21.5156 51.1504 21.8711C51.084 22.2227 51.0508 22.5781 51.0508 22.9375C51.0508 23.3867 51.1406 23.7285 51.3203 23.9629C51.5 24.1934 51.7676 24.3086 52.123 24.3086ZM59.3652 25.0938C58.873 25.0938 58.4492 24.9941 58.0938 24.7949C57.7383 24.5918 57.4648 24.3066 57.2734 23.9395C57.0859 23.5684 56.9922 23.1309 56.9922 22.627C56.9922 22.2207 57.0371 21.8203 57.127 21.4258C57.2168 21.0273 57.3496 20.6523 57.5254 20.3008C57.7012 19.9453 57.918 19.6328 58.1758 19.3633C58.4375 19.0898 58.7383 18.877 59.0781 18.7246C59.418 18.5684 59.7969 18.4902 60.2148 18.4902C60.7148 18.4902 61.1406 18.5918 61.4922 18.7949C61.8477 18.9941 62.1191 19.2793 62.3066 19.6504C62.498 20.0215 62.5938 20.4609 62.5938 20.9688C62.5938 21.3672 62.5488 21.7637 62.459 22.1582C62.373 22.5527 62.2422 22.9277 62.0664 23.2832C61.8945 23.6348 61.6777 23.9473 61.416 24.2207C61.1582 24.4902 60.8574 24.7031 60.5137 24.8594C60.1738 25.0156 59.791 25.0938 59.3652 25.0938ZM59.4238 24.2852C59.666 24.2852 59.8965 24.2344 60.1152 24.1328C60.334 24.0312 60.5332 23.8848 60.7129 23.6934C60.8926 23.498 61.0469 23.2617 61.1758 22.9844C61.3086 22.7031 61.4102 22.3848 61.4805 22.0293C61.5547 21.6738 61.5918 21.2832 61.5918 20.8574C61.5918 20.6035 61.5469 20.3574 61.457 20.1191C61.3672 19.8809 61.2227 19.6855 61.0234 19.5332C60.8242 19.377 60.5586 19.2988 60.2266 19.2988C59.9531 19.2988 59.6992 19.3555 59.4648 19.4688C59.2344 19.582 59.0273 19.7422 58.8438 19.9492C58.6602 20.1562 58.5039 20.4004 58.375 20.6816C58.25 20.9629 58.1523 21.2715 58.082 21.6074C58.0156 21.9434 57.9824 22.2969 57.9824 22.668C57.9824 23.1797 58.1074 23.5781 58.3574 23.8633C58.6074 24.1445 58.9629 24.2852 59.4238 24.2852Z" fill="white"/>
<rect x="22.5" y="40.5" width="47" height="24" rx="3.5" stroke="#4F4F4F"/>
<path d="M31.68 49.77V52.1H34.22V52.85H31.68V55.25H34.52V56H30.77V49.02H34.52V49.77H31.68ZM38.757 56L37.457 53.96L36.207 56H35.257L37.027 53.28L35.257 50.52H36.287L37.587 52.55L38.827 50.52H39.777L38.017 53.23L39.787 56H38.757ZM40.3421 53.25C40.3421 52.6833 40.4554 52.19 40.6821 51.77C40.9088 51.3433 41.2221 51.0133 41.6221 50.78C42.0288 50.5467 42.4921 50.43 43.0121 50.43C43.6854 50.43 44.2388 50.5933 44.6721 50.92C45.1121 51.2467 45.4021 51.7 45.5421 52.28H44.5621C44.4688 51.9467 44.2854 51.6833 44.0121 51.49C43.7454 51.2967 43.4121 51.2 43.0121 51.2C42.4921 51.2 42.0721 51.38 41.7521 51.74C41.4321 52.0933 41.2721 52.5967 41.2721 53.25C41.2721 53.91 41.4321 54.42 41.7521 54.78C42.0721 55.14 42.4921 55.32 43.0121 55.32C43.4121 55.32 43.7454 55.2267 44.0121 55.04C44.2788 54.8533 44.4621 54.5867 44.5621 54.24H45.5421C45.3954 54.8 45.1021 55.25 44.6621 55.59C44.2221 55.9233 43.6721 56.09 43.0121 56.09C42.4921 56.09 42.0288 55.9733 41.6221 55.74C41.2221 55.5067 40.9088 55.1767 40.6821 54.75C40.4554 54.3233 40.3421 53.8233 40.3421 53.25ZM47.6663 48.6V56H46.7563V48.6H47.6663ZM54.0773 50.52V56H53.1673V55.19C52.9939 55.47 52.7506 55.69 52.4373 55.85C52.1306 56.0033 51.7906 56.08 51.4173 56.08C50.9906 56.08 50.6073 55.9933 50.2673 55.82C49.9273 55.64 49.6573 55.3733 49.4573 55.02C49.2639 54.6667 49.1673 54.2367 49.1673 53.73V50.52H50.0673V53.61C50.0673 54.15 50.2039 54.5667 50.4773 54.86C50.7506 55.1467 51.1239 55.29 51.5973 55.29C52.0839 55.29 52.4673 55.14 52.7473 54.84C53.0273 54.54 53.1673 54.1033 53.1673 53.53V50.52H54.0773ZM56.0838 49.63C55.9104 49.63 55.7638 49.57 55.6438 49.45C55.5238 49.33 55.4638 49.1833 55.4638 49.01C55.4638 48.8367 55.5238 48.69 55.6438 48.57C55.7638 48.45 55.9104 48.39 56.0838 48.39C56.2504 48.39 56.3904 48.45 56.5038 48.57C56.6238 48.69 56.6838 48.8367 56.6838 49.01C56.6838 49.1833 56.6238 49.33 56.5038 49.45C56.3904 49.57 56.2504 49.63 56.0838 49.63ZM56.5238 50.52V56H55.6138V50.52H56.5238ZM58.9847 51.41C59.1447 51.0967 59.3714 50.8533 59.6647 50.68C59.9647 50.5067 60.328 50.42 60.7547 50.42V51.36H60.5147C59.4947 51.36 58.9847 51.9133 58.9847 53.02V56H58.0747V50.52H58.9847V51.41Z" fill="#4F4F4F"/>
</svg>
